<svg width="96" height="96" viewBox="0 0 96 96" fill="none" xmlns="http://www.w3.org/2000/svg" role="img" aria-label="ThengaPari mark (light)">
  
  <path d="M48 40 C48 28 44 18 33 11 C31 24 37 34 48 40 Z" fill="#BCD6A3"></path>
  <path d="M48 40 C48 28 52 18 63 11 C65 24 59 34 48 40 Z" fill="#94B97F"></path>
  <rect x="45.5" y="34" width="5" height="14" rx="2.5" fill="#BCD6A3"></rect>
  
  <circle cx="48" cy="63" r="27" fill="#F4A52A"></circle>
  <path d="M48 36 a27 27 0 0 1 0 54 a20 27 0 0 0 0 -54 Z" fill="#E89318" opacity="0.55"></path>
  <circle cx="41" cy="56" r="3.4" fill="#A65B12"></circle>
  <circle cx="55" cy="56" r="3.4" fill="#A65B12"></circle>
  <circle cx="48" cy="67" r="3.4" fill="#A65B12"></circle>
</svg>